<svg width="100" height="100" viewBox="0 0 100 100" fill="none" xmlns="http://www.w3.org/2000/svg">
<path d="M63.2583 63.825C59.762 60.3196 55.0177 58.3445 50.0667 58.3333C47.5927 58.3213 45.1409 58.8005 42.8536 59.7432C40.5662 60.6859 38.4888 62.0733 36.7417 63.825M87.5 45.8333C87.5 50.7579 86.53 55.6342 84.6455 60.1839C82.7609 64.7337 79.9987 68.8676 76.5165 72.3498C73.0343 75.832 68.9003 78.5942 64.3506 80.4788C59.8009 82.3633 54.9246 83.3333 50 83.3333C45.0754 83.3333 40.1991 82.3633 35.6494 80.4788C31.0997 78.5942 26.9657 75.832 23.4835 72.3498C20.0013 68.8676 17.2391 64.7337 15.3545 60.1839C13.47 55.6342 12.5 50.7579 12.5 45.8333C12.5 35.8877 16.4509 26.3494 23.4835 19.3168C30.5161 12.2842 40.0544 8.33331 50 8.33331C59.9456 8.33331 69.4839 12.2842 76.5165 19.3168C83.5491 26.3494 87.5 35.8877 87.5 45.8333ZM40.625 36.4583C40.625 38.1833 39.925 39.5833 39.0625 39.5833C38.2 39.5833 37.5 38.1833 37.5 36.4583C37.5 34.7333 38.2 33.3333 39.0625 33.3333C39.925 33.3333 40.625 34.7333 40.625 36.4583ZM39.0958 34.3641L40 36.5L39.0958 36.5208V38.7875L38.5 36.5L39.0958 34.3641ZM62.5 36.4583C62.5 38.1833 61.8 39.5833 60.9375 39.5833C60.075 39.5833 59.375 38.1833 59.375 36.4583C59.375 34.7333 60.075 33.3333 60.9375 33.3333C61.8 33.3333 62.5 34.7333 62.5 36.4583ZM60.5 36L62 36.5L61 34L60.9375 38.5L60.5 36Z" stroke="white" stroke-width="1.5" stroke-linecap="round" stroke-linejoin="round"/>
<path d="M33.3333 25L45.8333 33.3333" stroke="white" stroke-linecap="round"/>
<path d="M54.1667 33.3333L66.6667 25" stroke="white" stroke-linecap="round"/>
</svg>
