<svg width="100" height="100" viewBox="0 0 100 100" fill="none" xmlns="http://www.w3.org/2000/svg">
<path d="M63.7583 63.2583C62.0172 64.9995 59.9502 66.3806 57.6754 67.3229C55.4005 68.2652 52.9623 68.7502 50.5 68.7502C48.0377 68.7502 45.5995 68.2652 43.3246 67.3229C41.0498 66.3806 38.9828 64.9995 37.2417 63.2583M88 50C88 54.9246 87.03 59.8009 85.1455 64.3506C83.2609 68.9003 80.4987 73.0343 77.0165 76.5165C73.5343 79.9987 69.4003 82.7609 64.8506 84.6455C60.3009 86.53 55.4246 87.5 50.5 87.5C45.5754 87.5 40.6991 86.53 36.1494 84.6455C31.5997 82.7609 27.4657 79.9987 23.9835 76.5165C20.5013 73.0343 17.7391 68.9003 15.8545 64.3506C13.97 59.8009 13 54.9246 13 50C13 40.0544 16.9509 30.5161 23.9835 23.4835C31.0161 16.4509 40.5544 12.5 50.5 12.5C60.4456 12.5 69.9839 16.4509 77.0165 23.4835C84.0491 30.5161 88 40.0544 88 50ZM41.125 40.625C41.125 42.35 40.425 43.75 39.5625 43.75C38.7 43.75 38 42.35 38 40.625C38 38.9 38.7 37.5 39.5625 37.5C40.425 37.5 41.125 38.9 41.125 40.625ZM39.5 38.5L40.5 40L40.2081 40.625L39.5 42.5V38.5ZM63 40.625C63 42.35 62.3 43.75 61.4375 43.75C60.575 43.75 59.875 42.35 59.875 40.625C59.875 38.9 60.575 37.5 61.4375 37.5C62.3 37.5 63 38.9 63 40.625ZM61 40.625L61.4375 38.6022L62 40.5L61.4375 42.743L61 40.625Z" stroke="white" stroke-width="1.5" stroke-linecap="round" stroke-linejoin="round"/>
</svg>
