<svg width="100" height="100" viewBox="0 0 100 100" fill="none" xmlns="http://www.w3.org/2000/svg">
<path d="M70.8333 58.3334C70.8333 60.5221 70.2945 62.6893 69.2475 64.7114C68.2005 66.7335 66.6659 68.5708 64.7314 70.1185C62.7968 71.6661 60.5002 72.8938 57.9726 73.7313C55.4449 74.5689 52.7359 75 50 75C47.2641 75 44.555 74.5689 42.0274 73.7313C39.4998 72.8938 37.2032 71.6661 35.2686 70.1185C33.334 68.5708 31.7995 66.7335 30.7525 64.7114C29.7055 62.6893 29.1667 60.522 29.1667 58.3334L50 58.3334H70.8333Z" fill="white"/>
<path d="M47.9167 64.8633C46.1756 66.6044 59.4502 66.3806 57.1754 67.3229C54.9005 68.2652 52.4623 68.7502 50 68.7502C47.5377 68.7502 45.0995 68.2652 42.8246 67.3229C40.5498 66.3806 51.0345 64.9995 49.2934 63.2583M87.5 50C87.5 54.9246 86.53 59.8009 84.6455 64.3506C82.7609 68.9003 79.9987 73.0343 76.5165 76.5165C73.0343 79.9987 68.9003 82.7609 64.3506 84.6455C59.8009 86.53 54.9246 87.5 50 87.5C45.0754 87.5 40.1991 86.53 35.6494 84.6455C31.0997 82.7609 26.9657 79.9987 23.4835 76.5165C20.0013 73.0343 17.2391 68.9003 15.3545 64.3506C13.47 59.8009 12.5 54.9246 12.5 50C12.5 40.0544 16.4509 30.5161 23.4835 23.4835C30.5161 16.4509 40.0544 12.5 50 12.5C59.9456 12.5 69.4839 16.4509 76.5165 23.4835C83.5491 30.5161 87.5 40.0544 87.5 50ZM40.625 40.625C40.625 42.35 39.925 43.75 39.0625 43.75C38.2 43.75 37.5 42.35 37.5 40.625C37.5 38.9 38.2 37.5 39.0625 37.5C39.925 37.5 40.625 38.9 40.625 40.625ZM39.0625 38.5L38.5 41L39.0958 40.6875L39.0625 42.5L39.5 40.5L39.0625 38.5ZM62.5 40.625C62.5 42.35 61.8 43.75 60.9375 43.75C60.075 43.75 59.375 42.35 59.375 40.625C59.375 38.9 60.075 37.5 60.9375 37.5C61.8 37.5 62.5 38.9 62.5 40.625ZM61 39L61.7519 40.6875H60.9708L61 42.5L60.2778 40.6875L61 39Z" stroke="white" stroke-width="1.5" stroke-linecap="round" stroke-linejoin="round"/>
</svg>
