<svg width="100" height="100" viewBox="0 0 100 100" fill="none" xmlns="http://www.w3.org/2000/svg">
<path d="M66.6667 64.5833C60.4167 64.5833 59.1177 64.5945 54.1667 64.5833C51.6927 64.5713 52.0833 64.5833 50 64.5833C47.9167 64.5833 50.2327 64.5833 37.7327 64.5833M89.5833 52.0833C89.5833 57.0079 88.6134 61.8842 86.7288 66.4339C84.8443 70.9837 82.082 75.1176 78.5998 78.5998C75.1176 82.082 70.9837 84.8442 66.434 86.7288C61.8843 88.6133 57.0079 89.5833 52.0833 89.5833C47.1588 89.5833 42.2824 88.6133 37.7327 86.7288C33.183 84.8442 29.049 82.082 25.5668 78.5998C22.0846 75.1176 19.3224 70.9837 17.4379 66.4339C15.5533 61.8842 14.5833 57.0079 14.5833 52.0833C14.5833 42.1377 18.5342 32.5994 25.5668 25.5668C32.5995 18.5342 42.1377 14.5833 52.0833 14.5833C62.029 14.5833 71.5672 18.5342 78.5998 25.5668C85.6325 32.5994 89.5833 42.1377 89.5833 52.0833ZM42.7083 42.7083C42.7083 44.4333 42.0083 45.8333 41.1458 45.8333C40.2833 45.8333 39.5833 44.4333 39.5833 42.7083C39.5833 40.9833 40.2833 39.5833 41.1458 39.5833C42.0083 39.5833 42.7083 40.9833 42.7083 42.7083ZM41 40L41.1792 42.7083L42 42L41.1458 45L41 40ZM64.5833 42.7083C64.5833 44.4333 63.8833 45.8333 63.0208 45.8333C62.1583 45.8333 61.4583 44.4333 61.4583 42.7083C61.4583 40.9833 62.1583 39.5833 63.0208 39.5833C63.8833 39.5833 64.5833 40.9833 64.5833 42.7083ZM63 40.5L64.1085 42.7083L63.5 43.5L63 45L62.5 42.7708L63 40.5Z" stroke="white" stroke-width="1.5" stroke-linecap="round" stroke-linejoin="round"/>
</svg>
