<svg width="100" height="100" viewBox="0 0 100 100" fill="none" xmlns="http://www.w3.org/2000/svg">
<path d="M63.2583 67.9917C59.762 64.4863 55.0177 62.5112 50.0667 62.5C47.5927 62.488 45.1409 62.9672 42.8536 63.9099C40.5662 64.8526 38.4888 66.24 36.7417 67.9917M87.5 50C87.5 54.9246 86.53 59.8009 84.6455 64.3506C82.7609 68.9003 79.9987 73.0343 76.5165 76.5165C73.0343 79.9987 68.9003 82.7609 64.3506 84.6455C59.8009 86.53 54.9246 87.5 50 87.5C45.0754 87.5 40.1991 86.53 35.6494 84.6455C31.0997 82.7609 26.9657 79.9987 23.4835 76.5165C20.0013 73.0343 17.2391 68.9003 15.3545 64.3506C13.47 59.8009 12.5 54.9246 12.5 50C12.5 40.0544 16.4509 30.5161 23.4835 23.4835C30.5161 16.4509 40.0544 12.5 50 12.5C59.9456 12.5 69.4839 16.4509 76.5165 23.4835C83.5491 30.5161 87.5 40.0544 87.5 50ZM40.625 40.625C40.625 42.35 39.925 43.75 39.0625 43.75C38.2 43.75 37.5 42.35 37.5 40.625C37.5 38.9 38.2 37.5 39.0625 37.5C39.925 37.5 40.625 38.9 40.625 40.625ZM38.5 40.625L39 38.5L40 40.5L39 42.5L38.5 40.625ZM62.5 40.625C62.5 42.35 61.8 43.75 60.9375 43.75C60.075 43.75 59.375 42.35 59.375 40.625C59.375 38.9 60.075 37.5 60.9375 37.5C61.8 37.5 62.5 38.9 62.5 40.625ZM60.4003 40.625L60.9708 38.7861L61.5 40.5L61 42.5L60.4003 40.625Z" stroke="white" stroke-width="1.5" stroke-linecap="round" stroke-linejoin="round"/>
</svg>
